<?xml version="1.0" encoding="utf-8"?>
<!-- Generator: Adobe Illustrator 19.0.0, SVG Export Plug-In . SVG Version: 6.00 Build 0)  -->
<svg version="1.1" id="Layer_1" xmlns="http://www.w3.org/2000/svg" xmlns:xlink="http://www.w3.org/1999/xlink" x="0px" y="0px"
	 viewBox="-59 151 492 492" style="enable-background:new -59 151 492 492;" xml:space="preserve">
<style type="text/css">
	.st0{fill:#3454D1;}
</style>
<g>
	<g>
		<path class="st0" d="M425.1,377.9L247.5,200.2c-5.1-5.1-11.8-7.9-19-7.9c-7.2,0-14,2.8-19,7.9l-16.1,16.1
			c-5.1,5.1-7.9,11.8-7.9,19c0,7.2,2.8,14.2,7.9,19.3l103.7,103.9H-32.4c-14.8,0-26.6,11.6-26.6,26.5v22.8
			c0,14.9,11.7,27.6,26.6,27.6h330.5L193.2,539.9c-5.1,5.1-7.9,11.7-7.9,18.9c0,7.2,2.8,13.9,7.9,18.9l16.1,16.1
			c5.1,5.1,11.8,7.8,19,7.8c7.2,0,14-2.8,19-7.9l177.7-177.7c5.1-5.1,7.9-11.9,7.9-19.1C433,389.8,430.2,383,425.1,377.9z"/>
	</g>
</g>
</svg>
